<svg width="32" height="32" viewBox="0 0 32 32" fill="none" xmlns="http://www.w3.org/2000/svg">
<g clip-path="url(#clip0_11367_269)">
<path d="M31.6334 15.9725C31.633 15.972 31.6327 15.9715 31.6322 15.9711L25.1007 8.42271C24.6114 7.85723 23.82 7.85933 23.3329 8.42764C22.8459 8.99587 22.8478 9.91496 23.3371 10.4805L27.7224 15.5484H1.25C0.559625 15.5484 0 16.1983 0 17C0 17.8017 0.559625 18.4516 1.25 18.4516H27.7223L23.3372 23.5195C22.8479 24.085 22.846 25.0041 23.333 25.5724C23.8201 26.1407 24.6116 26.1427 25.1008 25.5773L31.6323 18.0289C31.6327 18.0285 31.633 18.028 31.6334 18.0275C32.123 17.4601 32.1214 16.538 31.6334 15.9725Z" fill="#F8FAFC"/>
</g>
<defs>
<clipPath id="clip0_11367_269">
<rect width="32" height="32" fill="white"/>
</clipPath>
</defs>
</svg>
